<svg width="44" height="44" viewBox="0 0 44 44" fill="none" xmlns="http://www.w3.org/2000/svg">
<rect x="0.75" y="0.75" width="42.5" height="42.5" rx="14.25" stroke="#DE0D0D" stroke-width="1.5"/>
<circle cx="19" cy="17" r="3.25" stroke="#DE0D0D" stroke-width="1.5"/>
<path d="M11 16.25C10.5858 16.25 10.25 16.5858 10.25 17C10.25 17.4142 10.5858 17.75 11 17.75V16.25ZM15 16.25H11V17.75H15V16.25Z" fill="#DE0D0D"/>
<path d="M34 17.75C34.4142 17.75 34.75 17.4142 34.75 17C34.75 16.5858 34.4142 16.25 34 16.25V17.75ZM23 16.25H22.25V17.75H23V16.25ZM34 16.25H23V17.75H34V16.25Z" fill="#DE0D0D"/>
<circle cx="4" cy="4" r="3.25" transform="matrix(-1 0 0 1 30 23)" stroke="#DE0D0D" stroke-width="1.5"/>
<path d="M34 26.25C34.4142 26.25 34.75 26.5858 34.75 27C34.75 27.4142 34.4142 27.75 34 27.75V26.25ZM30 26.25H34V27.75H30V26.25Z" fill="#DE0D0D"/>
<path d="M11 27.75C10.5858 27.75 10.25 27.4142 10.25 27C10.25 26.5858 10.5858 26.25 11 26.25V27.75ZM22 26.25H22.75V27.75H22V26.25ZM11 26.25H22V27.75H11V26.25Z" fill="#DE0D0D"/>
</svg>
